<svg width="49" height="49" viewBox="0 0 49 49" fill="none" xmlns="http://www.w3.org/2000/svg">
<path d="M32.8089 4.5C39.5889 4.5 44.1289 9.26 44.1289 16.34V32.682C44.1289 39.74 39.5889 44.5 32.8089 44.5H15.4689C8.68891 44.5 4.12891 39.74 4.12891 32.682V16.34C4.12891 9.26 8.68891 4.5 15.4689 4.5H32.8089ZM32.4889 18.5C31.8089 17.82 30.6889 17.82 30.0089 18.5L21.7489 26.76L18.2489 23.26C17.5689 22.58 16.4489 22.58 15.7689 23.26C15.0889 23.94 15.0889 25.04 15.7689 25.74L20.5289 30.48C20.8689 30.82 21.3089 30.98 21.7489 30.98C22.2089 30.98 22.6489 30.82 22.9889 30.48L32.4889 20.98C33.1689 20.3 33.1689 19.2 32.4889 18.5Z" fill="url(#paint0_linear_2417_5636)"/>
<defs>
<linearGradient id="paint0_linear_2417_5636" x1="24.1289" y1="4.5" x2="24.1289" y2="44.5" gradientUnits="userSpaceOnUse">
<stop stop-color="#3EC9B0"/>
<stop offset="0.487663" stop-color="#3EC2C9"/>
<stop offset="1" stop-color="#56BCF2"/>
</linearGradient>
</defs>
</svg>
