<svg width="1440" height="413" viewBox="0 0 1440 413" fill="none" xmlns="http://www.w3.org/2000/svg">
<path opacity="0.33" d="M1423.85 109.267V153.025H1403.77L1386.77 159.203C1386.77 159.203 1385.74 185.715 1386.39 187.645C1387.03 189.447 1378.15 190.734 1378.15 190.734V95.1097L1333.35 88.9321L1313.27 90.7339V117.246L1291.52 119.048L1279.68 131.403V171.558L1274.92 194.466V148.778L1268.74 131.403H1253.29V166.281L1248.53 161.905V131.403H1196.52L1182.62 147.877L1175.8 133.849H1151.73L1142.33 153.797V81.4674L1128.43 72.8445L1105.91 75.2898L1096.51 87.0016V131.403L1093.55 142.471L1069.61 141.828L1043.6 149.807V161.519L1026.36 162.806L1014.64 186.23L1001 160.232L947.836 160.876L927.498 142.343L901.625 146.075V180.696L890.813 181.339L865.197 191.249L849.107 165.251L837.393 164.608L815.768 196.14L810.748 161.519L787.064 160.232L760.032 168.212V155.599L740.724 153.797V103.089L734.031 103.347L732.1 96.7828L716.653 96.3967V107.594H704.682V166.281L696.444 164.994L692.582 179.795V170.271L658.858 169.885V149.807L637.233 146.333V203.347L632.985 211.326L627.578 202.06V138.739L622.816 141.056V146.333L603.508 148.907V156.371L591.537 156.757V19.5625L581.883 14.8006V2.57401L566.951 0L557.812 0.643503V242.729L548.158 227.929V213.128L545.583 201.931V101.287L533.612 98.1985V88.2886L475.817 83.6553V119.434H459.212L460.756 126.384L450.459 125.483L444.409 130.245V143.372H439.646V136.809L429.992 135.522V142.986L415.575 143.372V124.067L396.267 122.266V115.702L391.504 115.058V211.584L374.642 197.941V189.962L364.988 190.605V170.271L353.532 169.627L345.809 175.805V186.873L337.056 187.517L328.946 194.338V240.026L319.936 241.828L307.45 231.532V190.219L300.499 188.932L297.924 183.398L272.953 180.953L259.308 183.398V203.604H246.951L243.604 194.466L232.792 194.595V128.572L223.524 117.117H203.701L194.304 124.196V161.905L182.333 164.994V188.418L175.125 190.863V195.753L167.916 194.466V201.288L160.708 205.663V211.841L151.054 209.396V174.261L146.291 172.459V153.926L123.508 141.313H112.566V155.213L105.358 153.926V147.748L93.9019 141.313H88.6243V148.52H66.9992V154.569L59.2759 148.52H54.8994V145.046L53.0974 143.63H38.9381L28.2542 150.322L25.6798 214.415L4.31215 216.86V226.127L-2.89622 224.325V237.967L-10.1046 235.522V203.476L-22.0756 202.189V195.367L-34.0467 194.724V202.703L-36.4924 205.792V291.635L-43.7007 290.992V274.261L-58.1175 272.459V253.283L-65.3258 250.194V185.2L-76.5245 179.537H-80V413H316.203L1520 408.367V107.465L1488.33 100L1423.85 109.267Z" fill="#CCCCCC" fill-opacity="0.6"/>
</svg>
